<svg xmlns="http://www.w3.org/2000/svg" viewBox="0 0 512 512">
  <defs>
    <linearGradient id="g" x1="0" y1="0" x2="1" y2="1">
      <stop offset="0" stop-color="#38bdf8"/>
      <stop offset="1" stop-color="#6366f1"/>
    </linearGradient>
  </defs>
  <rect width="512" height="512" rx="112" fill="#0b1220"/>
  <g stroke="#2c3d5e" stroke-width="10">
    <line x1="110" y1="202" x2="402" y2="202"/>
    <line x1="110" y1="310" x2="402" y2="310"/>
    <line x1="202" y1="110" x2="202" y2="402"/>
    <line x1="310" y1="110" x2="310" y2="402"/>
  </g>
  <rect x="92" y="92" width="328" height="328" rx="40" fill="none" stroke="url(#g)" stroke-width="22"/>
  <path transform="translate(256 256) rotate(45) scale(10.5) translate(-12 -12)" fill="url(#g)"
    d="M21 16v-2l-8-5V3.5A1.5 1.5 0 0 0 11.5 2 1.5 1.5 0 0 0 10 3.5V9l-8 5v2l8-2.5V19l-2 1.5V22l3.5-1 3.5 1v-1.5L13 19v-5.5Z"/>
</svg>
